<?xml version="1.0" encoding="UTF-8" ?>
<!DOCTYPE svg PUBLIC "-//W3C//DTD SVG 1.1//EN" "http://www.w3.org/Graphics/SVG/1.1/DTD/svg11.dtd">
<svg width="512pt" height="512pt" viewBox="0 0 512 512" version="1.1" xmlns="http://www.w3.org/2000/svg">
<g id="#000000ff">
<path fill="#000000" opacity="1.00" d=" M 64.31 119.42 C 83.15 95.51 111.88 79.78 142.15 76.66 C 164.91 74.14 188.31 78.80 208.55 89.46 C 227.32 99.25 243.27 113.86 256.00 130.67 C 272.25 108.97 294.24 91.03 320.12 82.29 C 347.24 72.80 377.91 74.14 404.14 85.82 C 428.43 96.41 448.61 115.79 460.57 139.39 C 471.89 161.67 476.31 187.33 473.72 212.15 C 470.67 238.34 458.99 262.71 444.47 284.42 C 423.20 315.82 396.01 342.73 367.22 367.23 C 343.88 386.89 319.29 405.02 293.87 421.88 C 287.94 425.73 282.15 429.96 275.45 432.38 C 259.36 438.66 240.38 436.57 225.99 427.02 C 191.46 404.62 158.27 380.00 127.77 352.32 C 102.47 329.06 78.78 303.55 60.92 274.03 C 47.87 252.21 38.13 227.63 37.57 201.93 C 36.85 172.50 45.74 142.49 64.31 119.42 M 143.51 101.71 C 115.01 104.94 88.77 122.86 75.13 148.06 C 65.14 166.23 61.18 187.49 62.96 208.08 C 64.95 227.91 73.25 246.51 83.57 263.35 C 101.84 292.56 126.12 317.45 151.74 340.25 C 178.61 363.85 207.47 385.12 237.44 404.61 C 247.09 412.05 261.18 413.06 271.56 406.53 C 292.50 393.10 312.79 378.68 332.36 363.33 C 363.51 338.81 393.16 311.82 417.05 280.02 C 431.90 259.86 444.75 237.21 448.51 212.11 C 451.38 190.08 447.33 167.01 436.52 147.54 C 425.85 128.24 407.85 113.22 387.04 105.98 C 366.85 99.00 344.21 99.56 324.33 107.36 C 303.34 115.42 285.96 131.04 273.30 149.38 C 270.58 153.11 268.40 157.19 265.78 160.98 C 262.21 165.85 254.91 167.25 249.75 164.15 C 246.95 162.67 245.29 159.89 243.69 157.28 C 233.26 139.98 219.23 124.48 201.69 114.21 C 184.33 103.91 163.59 99.28 143.51 101.71 Z" />
</g>
</svg>
