<svg width="24" height="24" fill="none" xmlns="http://www.w3.org/2000/svg"><path d="M9.58 2.285A4.246 4.246 0 0 0 5.908 5.42l-.087.337-2.06.012c-1.978.011-2.066.014-2.197.091-.196.115-.294.329-.294.64s.098.525.294.64c.131.077.219.08 2.197.091l2.06.012.087.337a4.218 4.218 0 0 0 2.226 2.719 4.24 4.24 0 0 0 3.732 0c1.112-.538 1.909-1.523 2.244-2.774.091-.338.104-.463.104-1.025 0-.562-.013-.687-.104-1.025-.404-1.506-1.492-2.63-2.95-3.049-.303-.087-.464-.112-1.06-.162a3.907 3.907 0 0 0-.52.021m1.003 1.518c.13.023.408.124.617.224.327.157.43.233.741.548.293.296.393.43.527.705.217.449.271.691.271 1.22s-.054.771-.271 1.22c-.134.275-.234.409-.527.705-.311.315-.414.391-.741.548-.431.206-.703.267-1.2.267s-.769-.061-1.2-.267c-.327-.157-.43-.233-.741-.548-.293-.296-.393-.43-.527-.705-.217-.449-.271-.691-.271-1.22s.054-.771.271-1.22c.134-.275.234-.409.527-.705.31-.314.414-.391.741-.548.209-.101.47-.2.58-.221.28-.052.92-.054 1.203-.003m5.087 2.014a.907.907 0 0 0-.207.1c-.196.163-.259.711-.114.991.043.084.14.188.215.232.133.078.208.08 3.436.08 3.228 0 3.303-.002 3.436-.08.196-.115.294-.329.294-.64s-.098-.525-.294-.64c-.133-.078-.216-.08-3.376-.089-2.64-.007-3.268.002-3.39.046m-2.09 7.468c-.988.094-2.032.611-2.682 1.326a4.418 4.418 0 0 0-1.009 1.864c-.092.339-.104.461-.104 1.025 0 .564.012.686.104 1.025.338 1.253 1.133 2.236 2.245 2.774 2.414 1.169 5.292-.144 5.958-2.719l.087-.337 2.06-.012c1.978-.011 2.066-.014 2.197-.091.196-.115.294-.329.294-.64s-.098-.525-.294-.64c-.131-.077-.219-.08-2.197-.091l-2.06-.012-.087-.337a4.24 4.24 0 0 0-2.932-2.994c-.303-.087-.464-.112-1.06-.162a3.907 3.907 0 0 0-.52.021m1.003 1.518c.13.023.408.124.617.224.327.157.43.233.741.548.293.296.393.43.527.705.217.449.271.691.271 1.22s-.054.771-.271 1.22c-.134.275-.234.409-.527.705-.311.315-.414.391-.741.548-.431.206-.703.267-1.2.267s-.769-.061-1.2-.267c-.327-.157-.43-.233-.741-.548-.293-.296-.393-.43-.527-.705-.217-.449-.271-.691-.271-1.22s.054-.771.271-1.22c.134-.275.234-.409.527-.705.31-.314.414-.391.741-.548.209-.101.47-.2.58-.221.28-.052.92-.054 1.203-.003M1.67 16.817a.907.907 0 0 0-.207.1c-.196.163-.259.711-.114.991.043.084.14.188.215.232.133.078.208.08 3.436.08 3.228 0 3.303-.002 3.436-.08.196-.115.294-.329.294-.64s-.098-.525-.294-.64c-.133-.078-.216-.08-3.376-.089-2.64-.007-3.268.002-3.39.046" fill-rule="evenodd" fill="#000"/></svg>