<svg width="24" height="24" fill="none" xmlns="http://www.w3.org/2000/svg"><path d="M10.86 1.281c-5.597.336-9.911 5.2-9.579 10.802.263 4.427 3.262 8.121 7.553 9.301 3.119.857 6.585.124 9.109-1.926a10.27 10.27 0 0 0 3.775-7.362 10.22 10.22 0 0 0-2.987-7.838 10.25 10.25 0 0 0-5.647-2.877c-.362-.056-1.515-.148-1.684-.134l-.54.034m1.765 1.541a8.715 8.715 0 0 1 6.737 4.838c.603 1.229.878 2.432.878 3.84 0 1.029-.136 1.886-.446 2.8a8.752 8.752 0 0 1-7.169 5.878 10.71 10.71 0 0 1-2.25 0 8.715 8.715 0 0 1-6.737-4.838c-.603-1.229-.878-2.432-.878-3.84 0-1.368.268-2.575.833-3.754a8.758 8.758 0 0 1 6.747-4.923c.558-.076 1.711-.077 2.285-.001m7.099 16.483a.975.975 0 0 0-.49.579c-.087.289.035.449 1.274 1.68 1.269 1.261 1.335 1.307 1.677 1.176.237-.09.465-.318.555-.555.131-.342.085-.408-1.175-1.676-.807-.813-1.158-1.138-1.302-1.21-.248-.124-.279-.123-.539.006" fill-rule="evenodd" fill="#000"/></svg>