<?xml version="1.0" encoding="UTF-8" ?>
<!DOCTYPE svg PUBLIC "-//W3C//DTD SVG 1.1//EN" "http://www.w3.org/Graphics/SVG/1.1/DTD/svg11.dtd">
<svg width="600pt" height="600pt" viewBox="0 0 600 600" version="1.1" xmlns="http://www.w3.org/2000/svg">
<g id="#90a3bfff">
<path fill="#90a3bf" opacity="1.00" d=" M 285.37 50.42 C 326.69 47.97 368.61 55.90 406.08 73.53 C 447.59 92.94 483.52 124.06 508.72 162.33 C 530.93 195.89 544.85 234.89 548.75 274.96 C 553.37 320.38 545.29 367.05 525.42 408.18 C 509.33 441.67 485.65 471.48 456.70 494.76 C 425.84 519.65 389.00 537.12 350.12 544.95 C 305.25 554.15 257.86 550.75 214.81 535.10 C 155.57 513.78 105.18 469.13 76.93 412.87 C 60.21 380.18 51.09 343.68 50.10 306.99 C 48.82 263.34 59.18 219.36 80.13 181.02 C 107.58 130.04 153.36 89.26 207.15 67.83 C 232.05 57.82 258.59 51.99 285.37 50.42 M 214.31 119.25 C 182.49 134.29 154.80 157.96 134.97 187.03 C 116.97 213.10 105.44 243.56 101.56 274.99 C 118.39 275.01 135.22 275.01 152.05 274.99 C 156.47 248.96 167.85 224.14 184.84 203.93 C 202.91 182.25 227.17 165.72 254.09 157.18 C 283.09 147.80 314.97 147.60 344.09 156.59 C 371.95 165.07 397.13 181.97 415.63 204.45 C 432.39 224.56 443.58 249.18 447.96 274.99 C 464.79 275.00 481.62 275.02 498.45 274.98 C 492.28 223.71 465.02 175.50 424.53 143.50 C 396.82 121.37 363.13 106.79 327.98 101.95 C 289.49 96.51 249.40 102.45 214.31 119.25 M 288.51 200.65 C 258.42 203.94 230.39 221.83 214.74 247.73 C 202.24 267.79 197.50 292.46 201.24 315.76 C 205.01 339.93 218.08 362.52 237.18 377.81 C 252.67 390.42 272.03 398.15 291.94 399.67 C 316.71 401.80 342.15 394.14 361.65 378.72 C 377.66 366.28 389.69 348.79 395.61 329.40 C 402.00 308.60 401.41 285.71 393.81 265.31 C 386.43 245.34 372.55 227.82 354.65 216.26 C 335.37 203.46 311.46 197.98 288.51 200.65 M 101.53 325.02 C 106.60 366.13 124.93 405.46 153.16 435.76 C 184.71 470.12 228.66 492.83 274.99 498.44 C 275.00 481.61 275.01 464.78 274.99 447.95 C 243.81 442.68 214.39 427.31 192.48 404.49 C 171.27 382.97 157.10 354.77 152.03 325.01 C 135.20 325.00 118.37 324.98 101.53 325.02 M 447.95 325.01 C 443.52 351.04 432.14 375.88 415.14 396.09 C 392.52 423.37 359.97 442.11 325.01 447.97 C 325.00 464.80 324.98 481.63 325.02 498.46 C 376.30 492.27 424.52 465.01 456.53 424.50 C 479.27 396.02 494.02 361.21 498.44 325.01 C 481.61 324.99 464.78 324.99 447.95 325.01 Z" />
</g>
<g id="#ffffffff">
</g>
</svg>
